<?xml version="1.0" encoding="utf-8"?>
<!-- Generator: Adobe Illustrator 25.2.0, SVG Export Plug-In . SVG Version: 6.00 Build 0)  -->
<svg version="1.1" id="Layer_1" xmlns="http://www.w3.org/2000/svg" xmlns:xlink="http://www.w3.org/1999/xlink" x="0px" y="0px"
	 viewBox="0 0 1920 1080" style="enable-background:new 0 0 1920 1080;" xml:space="preserve">
<style type="text/css">
	.st0{fill:none;stroke:#000000;stroke-width:5;stroke-miterlimit:10;}
</style>
<image style="overflow:visible;enable-background:new    ;" width="725" height="538" xlink:href="2DC3C5E8.jpg"  transform="matrix(2.1157 0 0 2.1157 230.8604 1080)">
</image>
<polygon class="st0" points="741.1,151.6 748.9,176.1 724.8,176.1 736.9,206.4 750.6,208.4 742.5,235.7 735.3,235.7 726.8,243.8 
	737.7,258.8 737.7,264.6 731.9,266.3 731.9,275.1 762.2,275.1 760.2,297.6 756.1,297.6 758.8,325.2 748.3,325.2 747.2,333 
	753.7,333 753.4,358.2 762.2,351.4 772.8,358.2 799.7,358.2 808.9,349.4 823.1,351.7 827.6,346.3 841.2,355.5 860.3,336.1 
	896.7,332 898.4,326.2 910.3,325.5 946,334.4 957.3,321.8 999.5,347 1002.2,337.4 1014.5,331.7 1016.2,334.4 1060.4,302.7 
	1083.6,300.3 1087,299.7 1091.4,298.3 1095.1,302.4 1099.9,311.6 1165.3,312.9 1163.9,295.6 1141.1,254.9 1118.6,250 1110.1,254.9 
	1103.7,266 1085.6,268 1072.3,274.5 1045.1,249.6 1009.4,269.7 999.1,270 977,252.3 975.3,234.6 942.3,213.9 938.6,214.9 
	933.4,216.9 915.7,222 909.3,227.8 907.6,233.6 888.2,234 868.4,212.9 859.6,210.5 854.8,197.5 847.3,192.8 851.1,177.4 834,178.8 
	821.8,178.8 805.8,175.1 786.7,175.7 793.9,161.1 775.5,160.8 "/>
<polygon class="st0" points="999.5,347 999.5,361.6 997.8,367.1 1002.6,375.9 1006.3,380.3 1006.3,390.2 1033.2,393.3 1042.7,386.1 
	1060.1,385.8 1063.1,382.7 1068.3,382.7 1072.3,386.1 1077.8,387.8 1081.9,389.5 1091.7,389.9 1100.3,385.4 1107.7,384.8 
	1117.3,389.9 1125.8,389.2 1136.7,391.6 1150.3,395.7 1156.8,395.7 1172.4,388.5 1178.9,369.8 1185.4,360.9 1194.9,358.2 
	1216,335.4 1231,319.4 1202.7,314.3 1195.2,317.7 1176.5,335.7 1172.1,335.7 1165.3,312.9 1099.9,311.6 1091.4,298.3 1060.4,302.7 
	1016.2,334.4 1012.3,332.7 1002.2,337.4 "/>
<polygon class="st0" points="641.7,454.9 661.1,460.7 669.6,457.8 706,440.6 706,447.7 714.2,447.1 724.8,452.5 727.5,454.2 
	729.2,456.3 730.9,458.6 744.2,454.6 747.6,444.7 753,445 757.1,463.7 763.9,463.7 774.8,457.3 786,456.6 794.6,452.2 806.8,450.1 
	799.7,438.9 805.4,438.9 826.6,456.6 833.4,455.6 841.9,437.2 846.3,430.7 852.8,427 859.9,427 871.5,427 886.1,430.7 895.7,430 
	923.2,405.9 946.7,405.9 949.8,407.9 957.3,408.6 964.4,408.6 972.9,407.9 980.1,402.8 993.4,397.7 1006.3,390.2 1006.3,380.3 
	997.8,367.1 999.5,361.6 999.5,347 957.3,321.8 946,334.4 910.3,325.5 898.4,326.2 896.7,332 860.3,336.1 841.2,355.5 827.6,346.3 
	823.1,351.7 808.9,349.4 798,358.2 772.8,358.2 762.2,351.4 753.4,358.2 747.9,371.1 742.8,395.7 702.3,395.7 704.7,415.7 
	692.8,417.4 692.1,412 678.5,410.6 682.2,418.8 671.3,428.7 666.2,424.3 651.2,434.5 645.1,434.8 647.8,448.4 "/>
<polygon class="st0" points="626.2,540 646.6,517.7 675.7,500.3 699.7,468.2 708.5,447.5 706,440.6 661.1,460.7 641.7,454.9 
	632.3,440.6 623.7,431.4 615,418.1 610.4,415.6 606.8,395.7 601.7,387.5 592,383.9 584.9,383.9 586.9,402.3 566.5,425.8 521,449.3 
	507.7,462 518.5,478.4 486.8,504.9 501.6,512.1 508.3,519.2 492.4,554.5 476.6,600.4 507.2,586.6 510.8,593.8 504.2,600.4 
	508.8,608.1 506.7,616.3 512.9,616.3 514.4,628.5 522.6,628.5 530.2,620.9 532.8,628.5 550.1,628.5 548.6,634.1 551.1,651.5 
	545,651.5 547.1,668.9 562.4,671.9 552.2,686.7 578.2,699 576.7,723 592.5,725.5 647.7,725.5 648.2,714.8 656.9,716.3 673.2,677.5 
	688,672.4 683.9,659.1 697.2,651.5 685.4,648.4 683.4,637.2 674.7,633.6 675.7,628.5 691.1,628 674.7,618.8 678.8,602.5 
	668.6,608.6 661.4,603 670.1,601.4 670.6,593.8 665,593.8 664,588.7 658.9,587.7 658.9,574.4 670.6,568.8 665,563.1 667.1,534.6 "/>
<polygon class="st0" points="519.5,774.9 586.2,725.5 576.7,723 578.2,699 552.2,686.7 562.4,671.9 547.1,668.9 545,651.5 
	551.1,651.5 548.6,634.1 550.1,628.5 532.8,628.5 530.2,620.9 522.6,628.5 514.4,628.5 512.9,616.3 506.7,616.3 508.8,608.1 
	504.2,600.4 510.8,593.8 507.2,586.6 476.6,600.4 484.4,577.9 465.4,577.9 462.6,588.7 455.1,588 449.4,591.1 449.4,599.9 
	421.1,590.4 421.1,596.9 412.6,597.2 412.6,612.2 400,611.8 398,614.2 403.1,615.6 404.1,621.4 398,627.1 376.2,628.9 372.1,637.4 
	368,640.1 366.3,645.5 366.3,651.3 361.9,653.4 361.9,657.8 354.7,659.5 354.7,668 350.3,668 347.2,695.2 338,696.3 328.9,701 
	327.1,714.6 306.4,743.6 310.5,747.7 295.8,769.1 276.4,779 276.4,790.9 268.9,797 271,801.1 283.9,799.4 288.7,797 296.2,797 
	304.3,794 315.2,787.8 320.7,784.4 324.4,779.3 327.1,775.9 328.5,771.8 330.6,765.7 333.6,759.2 337,752.4 342.5,744.3 
	347.6,735.1 351,733 415.7,788.9 507.2,754.8 "/>
<polygon class="st0" points="340.8,801.1 355.1,813 366.6,813 366.6,810 380.9,810.3 390.1,815.1 418.2,787.9 351,733 347.6,735.1 
	342.5,744.3 337,752.4 333.6,759.2 330.6,765.7 328.5,771.8 327.1,775.9 324.4,779.3 320.7,784.4 315.2,787.8 304.3,794 296.2,797 
	288.7,797 283.9,799.4 271,801.1 268.9,797 266.2,798.7 266.2,823.2 276.4,823.2 300.9,824.6 312.2,835.8 "/>
<polyline class="st0" points="560.3,965.1 553.8,979.1 532,1002.6 519.8,1004.6 489.5,980.5 459.5,975.4 444.2,954.6 431.6,953.6 
	426.8,957.7 414.6,955.6 407.4,957.7 396.6,957.3 390.1,961.7 379.2,955.6 379.2,928 386.7,915.1 388.4,894 379.2,892.3 
	384.6,866.1 380.9,862.3 394.8,828 389.4,815.7 414.9,789.5 506.5,755.4 518.8,775.5 542.1,758.2 536.1,812 547.4,809.6 
	555.2,819.8 548,819.8 545.7,833.4 540.9,860.6 532,867.1 526.9,873.9 526.6,887.2 531,898.1 529.7,905.6 526.6,914.1 521.5,931.4 
	524.9,941.3 524.9,947.8 542.9,961.4 560.3,963.4 "/>
<polygon class="st0" points="611.8,975.5 619.3,955.4 634.6,951.6 648.6,938 652,920.3 655.7,917.6 655.7,907 663.2,897.8 
	663.2,883.5 659.8,873.7 660.8,857.7 671.7,857.7 668,841 654.4,836.6 649.6,827 664.9,823.3 671.7,813.1 671.7,803.9 660.8,801.8 
	657.1,785.2 657.4,752.8 652,750.8 655.1,739.9 665.6,736.5 667.3,728.3 647.1,726.3 585.6,726.3 542.3,758.3 536.3,812 
	547.5,809.7 555.3,819.9 548.2,819.9 541,860.7 532.2,867.2 527.1,874 526.7,887.3 531.1,898.2 521.6,931.5 526.3,940.7 
	523.9,947.8 541.6,959.7 556.6,962.1 574.3,965.2 592.7,968.9 "/>
<polygon class="st0" points="715.6,955.3 751.7,996.9 754.4,1016.9 760.5,1030.9 760.5,1037.7 772.4,1043.1 781.6,1075.1 
	795.6,1077.5 811.2,1077.5 825.9,1070.7 842.9,1060.9 861.3,1058.8 876.3,1056.4 895.7,1048.9 909.3,1043.8 929.7,1034 
	941.3,1023.7 974.6,963.8 969.5,951.6 952.9,960.4 950.1,954.6 937.5,955.7 929,947.1 923.6,947.1 920.2,959.4 898,955 891.9,950.6 
	920.5,926.4 914.4,914.5 903.5,917.5 905.9,925 880,935.2 845.1,934.2 843.6,922.3 849,919.6 850.4,906.3 843.9,906.3 840.5,916.9 
	832.3,916.5 823.8,920.3 814.6,914.5 819.7,906.3 804.1,893.7 819.4,882.1 818.4,870.6 812.3,870.6 809.9,865.4 816.3,860.7 
	813.3,854.6 796.9,861.7 787.7,862.4 783,860.7 771.7,847.7 761.5,832.1 767.3,810.3 762.6,802.8 764.3,789.5 757.8,783.1 
	749.6,783.1 736.7,791.2 718.3,766.4 713.2,731.3 694.5,726.3 684.9,732 670.3,728.3 667.3,728.3 665.6,736.5 655.1,739.9 
	652,750.8 657.4,752.8 657.1,785.2 660.8,801.8 671.7,803.9 671.7,813.1 664.9,823.3 649.6,827 654.4,836.6 668,841 671.7,857.7 
	660.8,857.7 659.8,873.7 663.2,883.5 663.2,897.8 655.7,907 655.7,917.6 652,920.3 648.6,938 634.6,951.6 619.3,955.4 611.8,975.5 
	626,972.7 635.6,963.8 645.4,964.2 654,974 670,975.5 691.7,973.7 "/>
<polygon class="st0" points="1073.7,935.2 1052.6,909 1042,901.9 1034.9,901.9 1016.9,900.5 1002.9,900.5 992.7,885.5 985.9,883.1 
	974.6,887.9 960,888.3 960,883.1 938.9,876 938.9,863.4 932.1,855.9 926.3,841.3 905.2,821.9 890.9,787.8 866.7,778.3 862.3,790.6 
	859.2,802.1 847.7,806.6 819.4,836.5 813.3,835.8 790.8,848.1 783,842.6 771.7,847.7 787.7,862.4 813.3,854.6 816.3,860.7 
	809.9,865.4 812.3,870.6 818.4,870.6 819.4,882.1 804.1,893.7 819.7,906.3 814.6,914.5 823.8,920.3 832.3,916.5 840.5,916.9 
	843.9,906.3 850.4,906.3 849,919.6 843.6,922.3 845.1,934.2 880,935.2 905.9,925 903.5,917.5 914.4,914.5 920.5,926.4 891.9,950.6 
	898,955 920.2,959.4 923.6,947.1 929,947.1 937.5,955.7 950.1,954.6 952.9,960.4 969.5,951.6 974.6,963.8 991,963.8 1009.4,950.9 
	1032.9,952.6 1043.4,959.1 1069.6,958.4 1068.9,948.5 1076.8,940.3 "/>
<polygon class="st0" points="873.5,738.1 883.1,766.4 866.4,766.4 866.7,778.3 890.9,787.8 905.2,821.9 926.3,841.3 932.1,855.9 
	938.9,863.4 938.9,876 960,883.1 960,888.3 974.6,887.9 985.9,883.1 992.7,885.5 1002.9,900.5 1016.9,900.5 1034.9,901.9 
	1042,901.9 1052.6,909 1073.7,935.2 1086.3,931.1 1096.9,927.4 1109.8,928.4 1122,930.5 1141.4,923.7 1134.6,911.4 1130.2,908 
	1138,895.7 1147.2,891.7 1147.2,884.9 1138.4,884.5 1097.2,847.1 1091.1,846.7 1066.6,834.5 1065.9,828.3 1041,825.6 1019.2,810 
	1006.8,789.9 1008.3,780.3 993.4,767.7 988.6,747.3 978.7,729.6 969.9,725.5 967.8,704.4 958,709.9 948.8,706.8 947.1,713.3 
	931.4,712.9 929.4,702.7 921.2,702.7 919.1,693.2 898.4,679.9 889.5,679.9 889.9,685.4 883.4,690.5 885.8,714.6 894.6,726.3 "/>
<polygon class="st0" points="1234.4,874 1234.4,860.7 1226.9,842 1211.9,840.3 1209.5,831.4 1220.4,807.6 1219.4,801.1 
	1255.5,759.6 1250.7,748.7 1253.8,745.3 1251.7,735.7 1243.2,730.3 1232.5,734 1229.6,746 1220.1,731.7 1218,713.6 1223.1,707.5 
	1208.2,707.5 1203.1,714 1190.1,707.5 1159.8,716.7 1136,735.4 1126.5,735.4 1090.4,711.6 1084.9,712.3 1076.8,717 1060.4,709.2 
	1035.2,701 1028.8,689.8 1009.7,677.9 985.9,672.8 976,669 960,683 953.5,682.6 953.5,688.8 935.8,686.4 935.8,691.5 929.4,702.7 
	931.4,712.9 947.1,713.3 948.8,706.8 958,709.9 967.8,704.4 969.9,725.5 978.7,729.6 988.6,747.3 993.4,767.7 1008.3,780.3 
	1006.8,789.9 1019.2,810 1041,825.6 1065.9,828.3 1066.6,834.5 1091.1,846.7 1097.2,847.1 1138.4,884.5 1147.2,884.9 1147.2,891.7 
	1138,895.7 1130.2,908 1134.6,911.4 1144.9,911.4 1164.6,898.5 1175.8,885.5 1210.9,877.7 "/>
<path class="st0" d="M1459.1,805.2v-11.7l-21.4-48.5l5.1-6.1l-2-17.4l2-18.9l-5.1-4.1v-16.3l3.1-7.1c0,0-8.7-8.7-7.1-9.2
	c1.5-0.5,12.7-20.9,12.7-20.9l-6.5-7.7h-11.7v-25h-5.1l12.3-31.1l-3.6-11.7l-5.6-2.6l-3.1-16.9l15.8-2.6l2.3-17.9l-8.4-2.6
	l-9.7-14.3l3.6-7.1l-20.4-30.1l-17.4,12.3l-12.8-3.6l-21.4,4.1l-24.5,7.1l-12.8-5.1l-23,12.8l-11.2-4.1l-17.4,7.1l-15.8-3.6
	l-12.8,5.6l3.6,24.5l15,14.8l8.5,2.6l13.3,10l4.1,20.1l5.6,8.7l1,12.3l-11.2,13.3l-4.1,11.2l6.6,11.7l-10.7,20.4l6.1,19.4l-2,13.3
	l-10.7,19.9l-8.2,35.1l-3.1,3.4l4.8,10.9l-36.1,41.5l1,6.5l-10.9,23.8l2.4,8.9l15,1.7l7.5,18.7V874l10.2,7.8h13.3l5.6,3.1h16.3
	l5.1-5.1l7.7-0.5l10.7,5.6l37.3-5.1l2.6-6.6l20.9-7.7l10.2,5.6h20.4l18.9-10.7l16.9-13.3l13.8-12.8l14.8-11.7V805.2z"/>
<polygon class="st0" points="1658.7,669 1656.2,610.1 1600,559.9 1600,518.2 1560.7,518.2 1557.1,501.4 1543.8,494.7 1540.8,487.6 
	1531.6,487.6 1523.9,487.6 1517.8,469.7 1517.8,452.3 1534.6,447.7 1548.9,429.9 1556.6,425.3 1559.1,419.1 1558.1,413 
	1564.3,401.3 1541.8,414 1532.1,414.6 1517.8,408.9 1499.4,401.3 1494.3,408.9 1484.6,410.5 1472.9,404.3 1467.7,416.1 
	1449.9,417.1 1444.8,426.8 1449.4,434 1430,456.9 1435.6,465.6 1410.2,481.6 1426.4,505.4 1422.8,512.6 1432.5,526.9 1440.9,529.4 
	1438.6,547.3 1422.8,549.9 1425.9,566.7 1431.5,569.3 1435.1,581 1422.8,612.2 1427.9,612.2 1427.9,637.2 1439.7,637.2 
	1446.2,644.9 1433.5,665.8 1440.7,675 1437.6,682.1 1437.6,698.5 1442.7,702.6 1440.7,721.4 1442.7,738.8 1437.6,744.9 
	1459.1,793.4 1459.1,805.2 1471.3,805.2 1481,794 1486.6,787.3 1488.7,781.7 1490.7,766.9 1493.3,763.8 1521.4,764.9 1526.5,758.7 
	1539.2,757.7 1551,746.5 1586.2,746.5 1627.6,713.3 1643.9,714.8 1662.8,709.7 1682.7,691.8 "/>
<polygon class="st0" points="1682.7,292.5 1661.8,301.7 1652.1,297.1 1661.8,274.6 1657.2,268.5 1655.1,248.1 1662.3,240.4 
	1648,235.3 1635.2,206.2 1635.2,199.1 1623.5,199.1 1614.3,178.1 1604.6,178.1 1600,171 1593.9,140.9 1578.6,133.7 1570.9,114.3 
	1570.9,105.6 1578.6,105.6 1579.1,94.9 1570.9,94.9 1555.6,76.5 1553,68.3 1559.7,62.7 1567.8,64.8 1569.4,56.6 1557.6,47.9 
	1553,39.7 1542.8,33.6 1532.6,33.6 1517.3,38.2 1512.2,48.9 1482.6,78 1456.5,87.2 1472.9,109.2 1473.9,117.4 1468.3,125 
	1458.6,138.8 1450.4,147 1448.3,171 1443.2,188.3 1437.1,196 1434,205.7 1423.3,219 1416.7,242.5 1436.1,274.6 1450.4,285.9 
	1458,272.6 1464.2,274.1 1462.6,287.4 1500.4,321.6 1518.8,324.2 1539.7,336.9 1552.5,347 1559.7,350.2 1561.2,359.9 1570.9,371.7 
	1566.3,378.3 1572.4,386.5 1569.4,395.7 1576.5,404.3 1595.4,404.3 1612.3,404.3 1623.5,401.3 1632.2,384.4 1640.3,382.9 
	1639.3,370.1 1660.8,331.8 1665.9,343.6 1674.6,315.5 1687.8,295.6 "/>
<polygon class="st0" points="1373.3,301.7 1365.6,315 1381.4,332.3 1387.1,347 1401.9,360.4 1410.2,404.3 1433,410 1426.9,422.7 
	1426.4,435.5 1433,435.5 1433,427.8 1444.8,426.8 1449.9,417.1 1467.7,416.1 1472.9,404.3 1484.6,410.5 1494.3,408.9 1499.4,401.3 
	1532.1,414.6 1541.8,414 1564.3,401.3 1569.4,395.7 1572.4,386.5 1566.3,378.3 1570.9,371.7 1561.2,359.9 1559.7,350.2 1552.5,347 
	1539.7,336.9 1518.8,324.2 1500.4,321.6 1462.6,287.4 1464.2,274.1 1458,272.6 1450.4,285.9 1436.1,274.6 1416.7,242.5 
	1399.8,263.9 1385,272.1 1384,285.9 "/>
<polygon class="st0" points="1271.7,286.4 1271.7,298.3 1255.5,305.3 1246.6,317 1231,319.4 1194.9,358.2 1199.7,371.7 
	1198.6,381.9 1209.5,395.7 1221.1,404.3 1228.3,416.6 1238.5,416.6 1233.3,430.9 1224.2,453.9 1214,468.2 1214,480.4 1228.3,485.5 
	1227.7,503.4 1236.9,508 1249.7,502.4 1265.5,506 1282.9,498.8 1294.1,502.9 1317.1,490.1 1329.9,495.2 1375.8,484 1386.2,486.9 
	1406,475.3 1410.2,481.6 1435.6,465.6 1430,456.9 1449.4,434 1444.8,426.8 1433,427.8 1433,435.5 1426.4,435.5 1426.9,422.7 
	1433,410 1410.2,404.3 1401.9,360.4 1387.1,347 1381.4,332.3 1365.6,315 1373.3,301.7 1356.4,295.1 1347.2,294 1331.4,295.1 
	1322.1,286.4 "/>
<polygon class="st0" points="1132.3,547.3 1136.9,557.5 1136.9,594.3 1159.8,597.9 1172.1,619.3 1187.4,628.5 1194.9,637.2 
	1197.6,662.2 1209.5,672.4 1223.1,707.5 1218,713.6 1220.1,731.7 1229.6,746 1232,736.3 1243.2,730.3 1251.7,735.7 1262,710.2 
	1272.7,690.3 1274.7,677 1268.6,657.6 1279.3,637.2 1272.7,625.4 1276.8,614.2 1288,600.9 1287,588.7 1281.4,580 1277.3,559.9 
	1264,549.9 1255.5,547.3 1240.5,532.5 1236.9,508 1210.1,508 1202.2,523.8 1205.3,535.1 1206.3,544.3 1191.5,547.8 1176.2,557 
	1165.4,554 1155.2,547.3 "/>
<polygon class="st0" points="731.6,634 697.2,651.5 683.9,659.1 688,672.4 673.2,677.5 656.9,716.3 648.2,714.8 647.1,726.3 
	667.3,728.3 684.9,732 694.5,726.3 713.2,731.3 718.3,766.4 736.7,791.2 749.6,783.1 757.8,783.1 764.3,789.5 762.6,802.8 
	767.3,810.3 761.5,832.1 771.7,847.7 783,842.6 790.8,848.1 813.3,835.8 819.4,836.5 847.7,806.6 859.2,802.1 866.7,778.3 
	866.4,766.4 883.1,766.4 873.5,738.1 858.6,734.7 831,674.5 823.5,677.2 812.9,675.5 793.2,677.5 777.9,685.7 759.8,673.8 
	745.2,669 744.2,662.6 747.9,654.7 740.4,644.9 740.4,634 "/>
<polygon class="st0" points="995.7,486.9 1006.3,500.9 1008.3,505.6 1018.9,505.6 1018.9,519.2 1023,527.1 1023,542.4 1032.2,542.4 
	1044.4,554.7 1059.1,557 1078.1,564.2 1090.4,565.9 1123.1,547.1 1132.3,547.3 1155.2,547.3 1165.4,554 1176.2,557 1191.5,547.8 
	1206.3,544.3 1202.2,523.8 1210.1,508 1236.9,508 1227.7,503.4 1228.3,485.5 1214,480.4 1214,468.2 1224.2,453.9 1238.5,416.6 
	1228.3,416.6 1221.1,404.3 1209.5,395.7 1198.6,381.9 1199.7,371.7 1194.9,358.2 1185.4,360.9 1178.9,369.8 1172.4,388.5 
	1156.8,395.7 1150.3,395.7 1136.7,391.6 1125.8,389.2 1117.3,389.9 1107.7,384.8 1111.1,397.2 1108.8,404.2 1098.9,411.3 
	1086.3,418.8 1068.3,419.5 1067.2,429.4 1068.3,441.3 1056.3,446 1027.7,446 1013.8,458 1015.5,475.3 1001.5,477.4 "/>
<polygon class="st0" points="863.7,498.1 866.4,511.4 869.8,534.6 875.9,536.6 880.3,529.8 883.1,529.8 886.5,536.6 892.9,536.6 
	897.7,540 897.7,552.9 880.7,559.9 875.2,555.7 866.4,559.9 857.9,559.9 851.1,576.8 854.5,584.9 848,604.3 822.5,616.6 835.1,634 
	834.7,639.4 846.3,669 860.1,669 883.4,690.5 889.9,685.4 889.5,679.9 898.4,679.9 919.1,693.2 921.2,702.7 929.4,702.7 
	935.8,691.5 935.8,686.4 953.5,688.8 953.5,682.6 960,683 976,669 985.9,672.8 1009.7,677.9 1028.8,689.8 1035.2,701 1060.4,709.2 
	1076.8,717 1084.9,712.3 1090.4,711.6 1126.5,735.4 1136,735.4 1159.8,716.7 1190.1,707.5 1203.1,714 1208.2,707.5 1223.1,707.5 
	1209.5,672.4 1197.6,662.2 1194.9,637.2 1187.4,628.5 1172.1,619.3 1159.8,597.9 1136.9,594.3 1136.9,557.5 1132.3,547.3 
	1123.1,547.1 1090.4,565.9 1078.1,564.2 1059.1,557 1044.4,554.7 1032.2,542.4 1023,542.4 1023,527.1 1018.9,519.2 1018.9,505.6 
	1008.3,505.6 995.7,486.9 984.5,486.9 978.7,490.3 972.9,486.9 967.8,491.3 964.1,486.9 944.7,486.9 933.4,491.7 921.5,504.9 
	902.5,500.5 890.2,495.4 "/>
<polygon class="st0" points="803.4,537.9 810.3,541.4 826.6,542.5 840.2,545.8 850.4,545.8 862.6,547.1 870.6,547.1 883.1,548.9 
	889.2,548.9 897.7,552.9 897.7,540 892.9,536.6 886.5,536.6 883.1,529.8 880.3,529.8 875.9,536.6 869.8,534.6 863.7,498.1 
	859.8,495.2 850.6,499.1 806,502.4 807,510 819.7,515.4 807,519.7 "/>
<polygon class="st0" points="708.5,565.9 732.9,552.9 759.5,534.3 772,525.9 777.1,527.4 789.9,527.7 803.4,537.9 810.3,541.4 
	826.6,542.5 840.2,545.8 850.4,545.8 862.6,547.1 870.6,547.1 883.1,548.9 889.2,548.9 897.7,552.9 880.7,559.9 875.2,555.7 
	866.4,559.9 857.9,559.9 851.1,576.8 854.5,584.9 848,604.3 822.5,616.6 835.1,634 834.7,639.4 846.3,669 860.1,669 883.4,690.5 
	885.8,714.6 894.6,726.3 873.5,738.1 858.6,734.7 831,674.5 823.5,677.2 812.9,675.5 793.2,677.5 777.9,685.7 759.8,673.8 
	745.2,669 744.2,662.6 747.9,654.7 740.4,644.9 740.4,634 731.6,634 727.1,611.1 735.5,609.4 733.4,598.4 728.9,596.1 728.3,583.6 
	"/>
<path class="st0" d="M708.5,565.9l2.3-4.3l3.6-3.8l3.6-4.9l4.6-6.1l5.9-4.9l5.4-7.1l6.1-5.1l8.4-7.7l11-8.2l13-6.4
	c0,0,12.3-3.1,13-3.1c0.8,0,12-2,12-2h8.7l1,7.7l12.8,5.4l-12.8,4.3l-3.6,18.1l-13.5-10.2l-12.8-0.3l-5.1-1.5l-39.1,27.1
	L708.5,565.9z"/>
<polygon class="st0" points="727.1,507 731.9,510.8 731.9,525.9 732.8,536.1 728.3,542 722.5,546.8 717.9,552.9 714.3,557.8 
	710.7,561.6 708.5,565.9 728.3,583.6 728.9,596.1 733.4,598.4 735.5,609.4 727.3,612.3 731.6,634 697.2,651.5 685.4,648.4 
	683.4,637.2 674.7,633.6 675.7,628.5 691.1,628 674.7,618.8 678.8,602.5 668.6,608.6 661.4,603 670.1,601.4 670.6,593.8 665,593.8 
	664,588.7 658.9,587.7 658.9,574.4 670.6,568.8 665,563.1 667.1,534.6 626.2,540 646.6,517.7 675.7,500.3 699.7,468.2 707.2,447.6 
	714.2,447.1 724.8,452.5 727.5,454.2 730.9,458.6 724.8,460 730.1,466.1 724.3,474.3 728.1,479.7 723.5,491.1 736.5,495.2 "/>
</svg>
